<svg width="19" height="24" viewBox="0 0 19 24" fill="none" xmlns="http://www.w3.org/2000/svg">
<path d="M13.964 3.55528C13.8267 3.55448 13.6912 3.58729 13.5695 3.65085C13.4477 3.71441 13.3433 3.80679 13.2655 3.91993C12.9929 4.30761 12.6014 4.87952 12.1638 5.55508C11.0315 3.72033 9.91455 2.0775 9.15454 0.983565C9.04642 0.829456 8.90276 0.703657 8.73573 0.616809C8.5687 0.529961 8.38321 0.484619 8.19495 0.484619C8.00669 0.484619 7.8212 0.529961 7.65417 0.616809C7.48714 0.703657 7.34348 0.829456 7.23535 0.983565C5.05899 4.09649 5.13141e-09 11.7234 5.13141e-09 15.3199C-7.15103e-05 17.3418 0.747382 19.2923 2.09862 20.7964C3.44985 22.3005 5.30945 23.2519 7.3198 23.4676C9.33014 23.6834 11.3493 23.1482 12.9889 21.9652C14.6285 20.7821 15.7728 19.0346 16.2018 17.0587C17.0406 16.6414 17.7466 15.9989 18.2409 15.203C18.7351 14.4071 18.9979 13.4893 19 12.5525C19 10.3607 15.9677 5.78538 14.6626 3.91993C14.5841 3.8074 14.4796 3.71548 14.358 3.652C14.2364 3.58851 14.1012 3.55533 13.964 3.55528ZM8.19495 22.7472C6.22577 22.7451 4.33785 21.9619 2.94543 20.5694C1.55301 19.177 0.76981 17.2891 0.767677 15.3199C0.767677 11.8462 6.19899 3.80478 7.86485 1.42498C7.90239 1.37245 7.95192 1.32963 8.00933 1.30009C8.06675 1.27055 8.13038 1.25514 8.19495 1.25514C8.25952 1.25514 8.32315 1.27055 8.38056 1.30009C8.43798 1.32963 8.48751 1.37245 8.52505 1.42498C10.1909 3.80478 15.6222 11.8462 15.6222 15.3199C15.6201 17.2891 14.8369 19.177 13.4445 20.5694C12.052 21.9619 10.1641 22.7451 8.19495 22.7472Z" fill="#33CCCC" fill-opacity="0.9"/>
<path d="M11.3517 8.69873C11.3853 8.75766 11.4338 8.80665 11.4925 8.8407C11.5512 8.87474 11.6178 8.89264 11.6856 8.89257C11.7522 8.89268 11.8176 8.8752 11.8752 8.8419C11.9636 8.79152 12.0284 8.70812 12.0553 8.61002C12.0822 8.51193 12.0691 8.40716 12.0188 8.31873C11.5331 7.46904 11.0298 6.62953 10.5092 5.80075C10.4551 5.71422 10.3689 5.65271 10.2695 5.62974C10.1701 5.60678 10.0656 5.62425 9.97908 5.67831C9.89255 5.73236 9.83103 5.81858 9.80807 5.91799C9.78511 6.0174 9.80258 6.12186 9.85663 6.20839C10.3726 7.02778 10.8711 7.85809 11.3517 8.69873ZM7.18934 12.0496C6.77573 11.7907 6.29536 11.6586 5.80752 11.6696C5.32088 11.6585 4.84169 11.7906 4.42954 12.0496C4.18615 12.1941 3.9147 12.2849 3.63337 12.3161C3.35204 12.3472 3.06731 12.3178 2.79823 12.23C2.75186 12.2114 2.70226 12.202 2.65227 12.2025C2.60228 12.203 2.55288 12.2134 2.50689 12.233C2.46091 12.2526 2.41923 12.281 2.38426 12.3168C2.34929 12.3525 2.3217 12.3948 2.30308 12.4412C1.87494 13.3463 1.61482 14.3218 1.5354 15.3199C1.5354 17.0862 2.23703 18.7801 3.48595 20.029C4.73487 21.2779 6.42876 21.9795 8.195 21.9795C9.96123 21.9795 11.6551 21.2779 12.904 20.029C14.153 18.7801 14.8546 17.0862 14.8546 15.3199C14.7735 14.3204 14.5121 13.3437 14.0831 12.4373C14.0447 12.3451 13.972 12.2715 13.8802 12.2321C13.7885 12.1927 13.685 12.1906 13.5918 12.2262C13.322 12.3167 13.0358 12.3478 12.7529 12.3173C12.47 12.2868 12.1971 12.1955 11.9528 12.0496C11.5355 11.8009 11.0587 11.6696 10.5729 11.6696C10.0871 11.6696 9.61029 11.8009 9.19297 12.0496C8.89095 12.2329 8.54444 12.3298 8.19116 12.3298C7.83787 12.3298 7.49136 12.2329 7.18934 12.0496ZM6.65964 14.3028C6.88739 14.3028 7.11002 14.3703 7.29939 14.4968C7.48876 14.6234 7.63635 14.8032 7.7235 15.0136C7.81066 15.224 7.83346 15.4556 7.78903 15.6789C7.7446 15.9023 7.63493 16.1075 7.47389 16.2685C7.31284 16.4296 7.10766 16.5392 6.88429 16.5837C6.66092 16.6281 6.42939 16.6053 6.21898 16.5181C6.00856 16.431 5.82872 16.2834 5.70219 16.094C5.57566 15.9047 5.50813 15.682 5.50813 15.4543C5.50904 15.1492 5.63065 14.8568 5.8464 14.641C6.06216 14.4253 6.35452 14.3037 6.65964 14.3028ZM9.73035 19.2927C9.5026 19.2927 9.27997 19.2251 9.0906 19.0986C8.90124 18.9721 8.75364 18.7922 8.66649 18.5818C8.57933 18.3714 8.55653 18.1399 8.60096 17.9165C8.64539 17.6931 8.75506 17.488 8.91611 17.3269C9.07715 17.1659 9.28233 17.0562 9.5057 17.0118C9.72907 16.9673 9.9606 16.9901 10.171 17.0773C10.3814 17.1644 10.5613 17.312 10.6878 17.5014C10.8143 17.6908 10.8819 17.9134 10.8819 18.1412C10.881 18.4463 10.7593 18.7386 10.5436 18.9544C10.3278 19.1701 10.0355 19.2918 9.73035 19.2927ZM10.237 14.4026C10.2743 14.3683 10.318 14.3417 10.3656 14.3243C10.4132 14.3069 10.4637 14.2991 10.5143 14.3012C10.5649 14.3033 10.6146 14.3154 10.6606 14.3368C10.7065 14.3581 10.7478 14.3883 10.7821 14.4256C10.8163 14.4629 10.8429 14.5066 10.8603 14.5542C10.8777 14.6017 10.8856 14.6523 10.8834 14.7029C10.8813 14.7535 10.8692 14.8032 10.8479 14.8491C10.8265 14.8951 10.7963 14.9364 10.759 14.9706L6.15298 19.1929C6.07764 19.2621 5.9779 19.2986 5.87568 19.2942C5.77346 19.2899 5.67715 19.2452 5.60793 19.1698C5.5387 19.0945 5.50224 18.9948 5.50656 18.8925C5.51088 18.7903 5.55562 18.694 5.63096 18.6248L10.237 14.4026Z" fill="#33CCCC" fill-opacity="0.9"/>
<path d="M6.6596 15.8381C6.87158 15.8381 7.04343 15.6662 7.04343 15.4542C7.04343 15.2422 6.87158 15.0704 6.6596 15.0704C6.44761 15.0704 6.27576 15.2422 6.27576 15.4542C6.27576 15.6662 6.44761 15.8381 6.6596 15.8381Z" fill="#33CCCC" fill-opacity="0.9"/>
<path d="M9.73021 18.525C9.9422 18.525 10.1141 18.3532 10.1141 18.1412C10.1141 17.9292 9.9422 17.7573 9.73021 17.7573C9.51822 17.7573 9.34637 17.9292 9.34637 18.1412C9.34637 18.3532 9.51822 18.525 9.73021 18.525Z" fill="#33CCCC" fill-opacity="0.9"/>
<path d="M12.4171 10.0805C12.6291 10.0805 12.8009 9.90863 12.8009 9.69664C12.8009 9.48466 12.6291 9.31281 12.4171 9.31281C12.2051 9.31281 12.0333 9.48466 12.0333 9.69664C12.0333 9.90863 12.2051 10.0805 12.4171 10.0805Z" fill="#33CCCC" fill-opacity="0.9"/>
</svg>
