<svg width="92" height="64" viewBox="0 0 92 64" fill="none" xmlns="http://www.w3.org/2000/svg">
<path d="M89.4375 48.9375V40.6687C89.4375 36.9562 87.2438 34.0875 84.375 33.75V5.0625C84.375 2.19375 82.1813 0 79.3125 0H11.8125C8.94375 0 6.75 2.19375 6.75 5.0625V33.75C3.88125 34.0875 1.6875 36.9562 1.6875 40.6687V48.9375C0.675 49.95 0 51.4688 0 52.9875V54.8438C0 57.7125 2.19375 60.2438 5.0625 60.5813V62.2688C5.0625 63.2813 5.7375 63.9563 6.75 63.9563H10.125C11.1375 63.9563 11.8125 63.2813 11.8125 62.2688V60.5813H79.3125V62.2688C79.3125 63.2813 79.9875 63.9563 81 63.9563H84.375C85.3875 63.9563 86.0625 63.2813 86.0625 62.2688V60.5813C88.9313 60.2438 91.125 57.7125 91.125 54.8438V52.9875C91.125 51.4688 90.45 49.95 89.4375 48.9375ZM10.125 5.0625C10.125 4.05 10.8 3.375 11.8125 3.375H79.3125C80.325 3.375 81 4.05 81 5.0625V33.75H77.625V26.4938C77.625 22.95 74.7562 20.25 71.3812 20.25H57.0375C53.4937 20.25 50.7937 23.1188 50.7937 26.4938V33.75H40.6688V26.4938C40.6688 22.95 37.8 20.25 34.425 20.25H20.0812C16.5375 20.25 13.8375 23.1188 13.8375 26.4938V33.75H10.4625V5.0625H10.125ZM74.25 33.75H54V26.4938C54 24.8063 55.35 23.625 56.8688 23.625H71.2125C72.9 23.625 74.0813 24.975 74.0813 26.4938V33.75H74.25ZM37.125 33.75H16.875V26.4938C16.875 24.8063 18.225 23.625 19.7438 23.625H34.0875C35.775 23.625 36.9562 24.975 36.9562 26.4938V33.75H37.125ZM7.425 37.125H8.4375H15.1875H38.8125H52.3125H75.9375H82.6875H83.7C84.7125 37.125 86.0625 38.6437 86.0625 40.6687V47.25C85.8938 47.25 85.5562 47.25 85.3875 47.25H5.7375C5.4 47.25 5.23125 47.25 5.0625 47.25V40.6687C5.0625 38.6437 6.24375 37.125 7.425 37.125ZM87.75 55.0125C87.75 56.3625 86.5687 57.375 85.3875 57.375H5.7375C4.55625 57.375 3.375 56.1937 3.375 55.0125V53.1562C3.375 51.8063 4.55625 50.625 5.7375 50.625H85.2188C86.5687 50.625 87.5813 51.8063 87.5813 52.9875V55.0125H87.75Z" fill="#231F20"/>
</svg>
