<svg width="88" height="66" viewBox="0 0 88 66" fill="none" xmlns="http://www.w3.org/2000/svg">
<path fill-rule="evenodd" clip-rule="evenodd" d="M20.7906 0C18.2456 0 16.1463 2.0671 16.1463 4.57303V35.0483C16.1463 37.5543 18.2456 39.6156 20.7906 39.6156H36.6701V45.7909H1.48651C-0.495502 45.762 -0.495502 48.7068 1.48651 48.6779H7.35044V66H10.2824V48.6779H77.7176V66H80.6496V48.6779H86.5135C88.4955 48.7068 88.4955 45.762 86.5135 45.7909H51.3299V39.6156H67.2094C69.7544 39.6156 71.8537 37.5543 71.8537 35.0483V4.57303C71.8537 2.0671 69.7544 0 67.2094 0H20.7906ZM20.7906 3.04291H67.2094C68.0949 3.04291 68.7634 3.70115 68.7634 4.57303V30.9545H19.2366V4.57303C19.2366 3.70115 19.9051 3.04291 20.7906 3.04291ZM19.2366 33.8416H43.8505C43.5377 33.8782 43.2452 34.013 43.0163 34.2261C42.7875 34.4392 42.6344 34.7193 42.5798 35.0247C42.5252 35.3302 42.5719 35.6448 42.7131 35.9221C42.8543 36.1993 43.0825 36.4244 43.3638 36.564H20.7906C19.9051 36.564 19.2366 34.1736 19.2366 35.0426V33.8416ZM44.0235 33.8416H68.7604V35.0483C68.7649 35.2497 68.7277 35.4498 68.6513 35.6366C68.5748 35.8234 68.4605 35.993 68.3155 36.135C68.1705 36.277 67.9976 36.3885 67.8075 36.4627C67.6174 36.537 67.4139 36.5724 67.2094 36.5669H44.6245C44.648 36.5525 44.6744 36.5467 44.6978 36.5323C44.741 36.5103 44.7831 36.4862 44.8239 36.4601L44.9412 36.3677C45.2038 36.1447 45.3775 35.8371 45.4312 35.4997C45.4849 35.1624 45.4151 34.8172 45.2344 34.5258C45.2109 34.4825 45.1816 34.4507 45.1523 34.4103C45.0059 34.2161 44.8123 34.0613 44.5893 33.9599C44.5453 33.9426 44.5014 33.9224 44.4515 33.9109C44.3131 33.8669 44.1689 33.8435 44.0235 33.8416ZM39.6021 39.6156H48.3979V45.7909H39.6021V39.6156Z" fill="black"/>
</svg>
