<svg width="93" height="82" viewBox="0 0 93 82" fill="none" xmlns="http://www.w3.org/2000/svg">
<path d="M36.248 39.3307H26.3183C27.0945 37.998 27.5046 36.5041 27.5046 34.9224C27.5046 33.3553 27.0945 31.8175 26.3036 30.4701C25.4249 28.9762 24.8098 27.3213 24.4729 25.5491C24.3704 25.0365 23.9164 24.6557 23.3891 24.6557H19.7717V22.3124C21.866 21.8145 23.4331 19.9398 23.4331 17.6991C23.4331 15.0775 21.2948 12.9392 18.6732 12.9392C16.0517 12.9392 13.9134 15.0775 13.9134 17.6991C13.9134 19.9398 15.4805 21.8145 17.5748 22.3124V24.6557H13.9573C13.4301 24.6557 12.9761 25.0365 12.8735 25.5491C12.5367 27.3213 11.9216 28.9762 11.0428 30.4701C10.252 31.8175 9.84189 33.3553 9.84189 34.9224C9.84189 36.5041 10.252 37.998 11.0282 39.3307H1.09843C0.497953 39.3307 0 39.8287 0 40.4291V75.5787V79.9724C0 80.5729 0.497953 81.0709 1.09843 81.0709H5.49213C5.96079 81.0709 6.38551 80.7633 6.53197 80.3239L7.74756 76.6772H29.5989L30.8145 80.3239C30.9609 80.778 31.3857 81.0709 31.8543 81.0709H36.248C36.8485 81.0709 37.3465 80.5729 37.3465 79.9724V75.5787V40.4291C37.3465 39.8287 36.8485 39.3307 36.248 39.3307ZM16.1102 17.7137C16.1102 16.3077 17.2672 15.1507 18.6732 15.1507C20.0792 15.1507 21.2362 16.3077 21.2362 17.7137C21.2362 19.1197 20.0792 20.2767 18.6732 20.2767C17.2672 20.2767 16.1102 19.1197 16.1102 17.7137ZM12.0387 34.9224C12.0387 33.7507 12.3463 32.5937 12.9468 31.5831C13.7962 30.1332 14.4406 28.5368 14.8507 26.8672H22.4957C22.9058 28.5515 23.5356 30.1332 24.3997 31.5831C24.9855 32.5937 25.3077 33.7507 25.3077 34.9224C25.3077 36.5627 24.7072 38.1151 23.6235 39.3307H18.6732H13.7376C12.6392 38.1151 12.0387 36.5627 12.0387 34.9224ZM2.19685 41.5276L17.5748 41.5569V74.4803H2.19685V41.5276ZM4.70126 78.874H2.19685V76.6772H5.43354L4.70126 78.874ZM19.7717 41.5569L35.1496 41.5276V74.4803H19.7717V41.5569ZM35.1496 78.874H32.6452L31.9129 76.6772H35.1496V78.874ZM88.6063 57.0227V50.6811C88.6063 48.455 86.8049 46.6535 84.5787 46.6535H49.4291C47.203 46.6535 45.4016 48.455 45.4016 50.6811V57.0227C42.8972 57.5353 41.0079 59.7468 41.0079 62.3976V79.9724C41.0079 80.5729 41.5058 81.0709 42.1063 81.0709H91.9016C92.502 81.0709 93 80.5729 93 79.9724V62.3976C93 59.7468 91.1107 57.5206 88.6063 57.0227ZM49.4291 48.8504H84.5787C85.5893 48.8504 86.4094 49.6706 86.4094 50.6811V57.0227C83.905 57.5353 82.0157 59.7468 82.0157 62.3976V67.1575H51.9921V62.3976C51.9921 59.7468 50.1028 57.5206 47.5984 57.0227V50.6811C47.5984 49.6706 48.4186 48.8504 49.4291 48.8504ZM51.9921 69.3543H82.0157V71.185C82.0157 72.1956 81.1956 73.0158 80.185 73.0158H53.8228C52.8123 73.0158 51.9921 72.1956 51.9921 71.185V69.3543ZM90.8032 78.874H43.2047V62.3976C43.2047 60.5816 44.6839 59.1024 46.5 59.1024C48.3161 59.1024 49.7953 60.5816 49.7953 62.3976V71.185C49.7953 73.4112 51.5967 75.2126 53.8228 75.2126H80.185C82.4112 75.2126 84.2126 73.4112 84.2126 71.185V62.3976C84.2126 60.5816 85.6918 59.1024 87.5079 59.1024C89.3239 59.1024 90.8032 60.5816 90.8032 62.3976V78.874Z" fill="black"/>
<path d="M67.0038 63.4961C67.6043 63.4961 68.1022 62.9981 68.1022 62.3977V53.6103C68.1022 53.0098 67.6043 52.5118 67.0038 52.5118C66.4033 52.5118 65.9054 53.0098 65.9054 53.6103V62.3977C65.9054 62.9981 66.4033 63.4961 67.0038 63.4961Z" fill="black"/>
<path d="M55.2874 58.0039C56.0963 58.0039 56.752 57.3482 56.752 56.5394C56.752 55.7305 56.0963 55.0748 55.2874 55.0748C54.4786 55.0748 53.8229 55.7305 53.8229 56.5394C53.8229 57.3482 54.4786 58.0039 55.2874 58.0039Z" fill="black"/>
<path d="M61.1457 58.0039C61.9546 58.0039 62.6103 57.3482 62.6103 56.5394C62.6103 55.7305 61.9546 55.0748 61.1457 55.0748C60.3369 55.0748 59.6812 55.7305 59.6812 56.5394C59.6812 57.3482 60.3369 58.0039 61.1457 58.0039Z" fill="black"/>
<path d="M58.2166 55.0748C59.0254 55.0748 59.6811 54.4191 59.6811 53.6102C59.6811 52.8014 59.0254 52.1457 58.2166 52.1457C57.4077 52.1457 56.752 52.8014 56.752 53.6102C56.752 54.4191 57.4077 55.0748 58.2166 55.0748Z" fill="black"/>
<path d="M58.2166 60.9331C59.0254 60.9331 59.6811 60.2774 59.6811 59.4685C59.6811 58.6596 59.0254 58.0039 58.2166 58.0039C57.4077 58.0039 56.752 58.6596 56.752 59.4685C56.752 60.2774 57.4077 60.9331 58.2166 60.9331Z" fill="black"/>
<path d="M72.8622 58.0039C73.671 58.0039 74.3267 57.3482 74.3267 56.5394C74.3267 55.7305 73.671 55.0748 72.8622 55.0748C72.0533 55.0748 71.3976 55.7305 71.3976 56.5394C71.3976 57.3482 72.0533 58.0039 72.8622 58.0039Z" fill="black"/>
<path d="M78.7204 58.0039C79.5293 58.0039 80.185 57.3482 80.185 56.5394C80.185 55.7305 79.5293 55.0748 78.7204 55.0748C77.9116 55.0748 77.2559 55.7305 77.2559 56.5394C77.2559 57.3482 77.9116 58.0039 78.7204 58.0039Z" fill="black"/>
<path d="M75.7913 55.0748C76.6001 55.0748 77.2559 54.4191 77.2559 53.6102C77.2559 52.8014 76.6001 52.1457 75.7913 52.1457C74.9824 52.1457 74.3267 52.8014 74.3267 53.6102C74.3267 54.4191 74.9824 55.0748 75.7913 55.0748Z" fill="black"/>
<path d="M75.7913 60.9331C76.6001 60.9331 77.2559 60.2774 77.2559 59.4685C77.2559 58.6596 76.6001 58.0039 75.7913 58.0039C74.9824 58.0039 74.3267 58.6596 74.3267 59.4685C74.3267 60.2774 74.9824 60.9331 75.7913 60.9331Z" fill="black"/>
<path d="M14.9633 63C15.4899 63 15.9266 62.5673 15.9266 62.0455V54.4091C15.9266 53.8873 15.4899 53.4545 14.9633 53.4545C14.4367 53.4545 14 53.8873 14 54.4091V62.0455C14 62.5673 14.4367 63 14.9633 63ZM22.6697 53.4545C22.1431 53.4545 21.7064 53.8873 21.7064 54.4091V62.0455C21.7064 62.5673 22.1431 63 22.6697 63C23.1963 63 23.633 62.5673 23.633 62.0455V54.4091C23.633 53.8873 23.1963 53.4545 22.6697 53.4545ZM83.0367 0H44.5046C43.978 0 43.5413 0.432727 43.5413 0.954545V28.9545C43.5413 29.4764 43.978 29.9091 44.5046 29.9091H83.0367C83.5633 29.9091 84 29.4764 84 28.9545V0.954545C84 0.432727 83.5633 0 83.0367 0ZM45.4679 3.25818L48.6789 6.44V23.4691L45.4679 26.6509V3.25818ZM70.5908 22.9091L67.7009 20.0455L72.7615 15.0309L76.9358 19.1673V22.9091H70.5908ZM76.9358 16.4691L73.4422 13.0073C73.0697 12.6382 72.4532 12.6382 72.0807 13.0073L66.3395 18.6964L59.3138 11.7345C58.9413 11.3655 58.3248 11.3655 57.9523 11.7345L50.6055 19.0145V7H76.9358V16.4691ZM50.6055 21.7127L58.633 13.7582L67.8679 22.9091H50.6055V21.7127ZM77.5009 5.09091H50.0404L46.8294 1.90909H80.7119L77.5009 5.09091ZM50.0404 24.8182H77.5009L80.7119 28H46.8294L50.0404 24.8182ZM78.8624 23.4691V18.7727C78.8624 18.7727 78.8624 18.7727 78.8624 18.76V6.44L82.0734 3.25818V26.6509L78.8624 23.4691Z" fill="black"/>
<path d="M66.5 16C68.4345 16 70 14.4345 70 12.5C70 10.5655 68.4345 9 66.5 9C64.5655 9 63 10.5655 63 12.5C63 14.4345 64.5655 16 66.5 16ZM66.5 10.9091C67.3782 10.9091 68.0909 11.6218 68.0909 12.5C68.0909 13.3782 67.3782 14.0909 66.5 14.0909C65.6218 14.0909 64.9091 13.3782 64.9091 12.5C64.9091 11.6218 65.6218 10.9091 66.5 10.9091Z" fill="black"/>
</svg>
