<svg width="88" height="82" viewBox="0 0 88 82" fill="none" xmlns="http://www.w3.org/2000/svg">
<path fill-rule="evenodd" clip-rule="evenodd" d="M20.4286 0C20.0118 0 19.6121 0.16614 19.3174 0.46187C19.0227 0.757601 18.8571 1.1587 18.8571 1.57692V78.8462H0V82H88V78.8462H69.1429V1.57692C69.1429 1.1587 68.9773 0.757601 68.6826 0.46187C68.3879 0.16614 67.9882 0 67.5714 0H20.4286ZM22 3.15385H66V78.8462H22V3.15385ZM33 12.6154C32.5832 12.6154 32.1835 12.7815 31.8888 13.0773C31.5941 13.373 31.4286 13.7741 31.4286 14.1923V52.0385C31.4286 52.4567 31.5941 52.8578 31.8888 53.1535C32.1835 53.4492 32.5832 53.6154 33 53.6154H55C55.4168 53.6154 55.8165 53.4492 56.1112 53.1535C56.4059 52.8578 56.5714 52.4567 56.5714 52.0385V14.1923C56.5714 13.7741 56.4059 13.373 56.1112 13.0773C55.8165 12.7815 55.4168 12.6154 55 12.6154H33ZM34.5714 15.7692H42.4286V31.5385H34.5714V15.7692ZM45.5714 15.7692H53.4286V31.5385H45.5714V15.7692ZM34.5714 34.6923H42.4286V50.4615H34.5714V34.6923ZM45.5714 34.6923H53.4286V50.4615H45.5714V34.6923ZM26.7143 47.3077C26.2975 47.3077 25.8978 47.4738 25.6031 47.7696C25.3084 48.0653 25.1429 48.4664 25.1429 48.8846C25.1429 49.3028 25.3084 49.7039 25.6031 49.9997C25.8978 50.2954 26.2975 50.4615 26.7143 50.4615C27.1311 50.4615 27.5308 50.2954 27.8255 49.9997C28.1202 49.7039 28.2857 49.3028 28.2857 48.8846C28.2857 48.4664 28.1202 48.0653 27.8255 47.7696C27.5308 47.4738 27.1311 47.3077 26.7143 47.3077ZM33 66.2308C32.5832 66.2308 32.1835 66.3969 31.8888 66.6926C31.5941 66.9884 31.4286 67.3895 31.4286 67.8077V74.1154C31.4286 74.5336 31.5941 74.9347 31.8888 75.2304C32.1835 75.5262 32.5832 75.6923 33 75.6923H55C55.4168 75.6923 55.8165 75.5262 56.1112 75.2304C56.4059 74.9347 56.5714 74.5336 56.5714 74.1154V67.8077C56.5714 67.3895 56.4059 66.9884 56.1112 66.6926C55.8165 66.3969 55.4168 66.2308 55 66.2308H33ZM34.5714 69.3846H53.4286V72.5385H34.5714V69.3846Z" fill="#1E1E1E"/>
</svg>
