<svg width="98" height="98" viewBox="0 0 98 98" fill="none" xmlns="http://www.w3.org/2000/svg">
<path d="M31.8224 58.8384C30.5242 58.8384 29.2792 59.3542 28.3612 60.2722C27.4432 61.1902 26.9275 62.4353 26.9275 63.7336V68.6288C26.9275 69.9271 27.4432 71.1722 28.3612 72.0902C29.2792 73.0083 30.5242 73.524 31.8224 73.524C33.1206 73.524 34.3657 73.0083 35.2837 72.0902C36.2016 71.1722 36.7174 69.9271 36.7174 68.6288V63.7336C36.7174 62.4353 36.2016 61.1902 35.2837 60.2722C34.3657 59.3542 33.1206 58.8384 31.8224 58.8384ZM31.8224 83.3144C30.5242 83.3144 29.2792 83.8301 28.3612 84.7482C27.4432 85.6662 26.9275 86.9113 26.9275 88.2096V93.1048C26.9275 94.4031 27.4432 95.6482 28.3612 96.5662C29.2792 97.4843 30.5242 98 31.8224 98C33.1206 98 34.3657 97.4843 35.2837 96.5662C36.2016 95.6482 36.7174 94.4031 36.7174 93.1048V88.2096C36.7174 86.9113 36.2016 85.6662 35.2837 84.7482C34.3657 83.8301 33.1206 83.3144 31.8224 83.3144ZM96.4355 24.9147C95.8409 24.3274 95.1059 23.9021 94.3005 23.6793C93.4951 23.4565 92.646 23.4437 91.8342 23.642C90.7911 23.8882 89.7242 24.0195 88.6525 24.0336C84.7579 24.0336 81.0228 22.4863 78.2688 19.7323C75.5149 16.9782 73.9678 13.2428 73.9678 9.34799C73.9832 8.26019 74.1145 7.17714 74.3594 6.11716C74.5488 5.31258 74.5315 4.47313 74.3089 3.67708C74.0864 2.88102 73.6659 2.15428 73.0867 1.56462C72.5169 0.950838 71.7991 0.493516 71.0021 0.236397C70.2051 -0.0207233 69.3554 -0.0690415 68.5344 0.0960637C63.6626 1.17173 59.2439 3.73103 55.8865 7.42171C52.5291 11.1124 50.3981 15.753 49.7868 20.7048C47.1209 19.9946 44.371 19.6487 41.6123 19.6769C34.558 19.6728 27.7379 22.2082 22.3991 26.8192C17.0602 31.4303 13.5593 37.8091 12.5364 44.7892C9.12776 45.7384 6.09661 47.7199 3.85935 50.4613C1.62209 53.2027 0.288482 56.5697 0.0417227 60.0996C-0.205037 63.6295 0.647158 67.1493 2.48124 70.1753C4.31532 73.2014 7.04132 75.5853 10.2848 76.9996C10.9086 77.2468 11.5718 77.3795 12.2427 77.3912C13.3744 77.4005 14.4743 77.0172 15.3553 76.3068C16.2363 75.5964 16.8439 74.6026 17.0747 73.4946C17.3055 72.3866 17.1453 71.2328 16.6213 70.2297C16.0973 69.2265 15.2419 68.4359 14.2007 67.9924C12.8874 67.433 11.7686 66.498 10.9848 65.3049C10.201 64.1117 9.78718 62.7136 9.79526 61.286C9.79526 59.3386 10.5688 57.4709 11.9458 56.0939C13.3228 54.7168 15.1903 53.9432 17.1376 53.9432C18.4359 53.9432 19.6809 53.4275 20.5989 52.5095C21.5169 51.5914 22.0326 50.3463 22.0326 49.048C22.0326 43.8549 24.0954 38.8744 27.7673 35.2023C31.4392 31.5302 36.4194 29.4672 41.6123 29.4672C45.3944 29.471 49.0906 30.5952 52.2343 32.6981C55.8075 35.0225 58.5099 38.4653 59.9193 42.4885C60.1991 43.3297 60.7021 44.0791 61.3745 44.6567C62.047 45.2344 62.8636 45.6185 63.7374 45.7682C66.0935 46.0146 68.3135 46.9916 70.0868 48.5624C71.86 50.1333 73.0977 52.2195 73.6264 54.5288C74.1551 56.8381 73.9485 59.2549 73.0354 61.4409C72.1224 63.6269 70.5486 65.4726 68.5344 66.7197C67.9944 67.0732 67.5294 67.5297 67.1658 68.063C66.8023 68.5963 66.5473 69.196 66.4155 69.8278C66.2837 70.4597 66.2776 71.1113 66.3976 71.7455C66.5176 72.3797 66.7613 72.984 67.1149 73.524C67.4684 74.064 67.9248 74.5291 68.4581 74.8927C68.9914 75.2562 69.591 75.5112 70.2228 75.643C70.8546 75.7749 71.5062 75.7809 72.1404 75.6609C72.7745 75.5409 73.3788 75.2972 73.9188 74.9436C76.8116 72.9875 79.1749 70.3454 80.7978 67.2532C82.4207 64.161 83.2526 60.7151 83.2192 57.223C83.2383 53.8118 82.4144 50.4487 80.8206 47.4326C85.0243 46.2586 88.8319 43.9687 91.8395 40.8058C94.8472 37.6429 96.9427 33.7248 97.9039 29.4672C98.069 28.6462 98.0207 27.7965 97.7636 26.9994C97.5065 26.2023 97.0492 25.4845 96.4355 24.9147ZM73.9678 38.7192C73.2835 38.7722 72.5961 38.7722 71.9119 38.7192C70.8362 38.0542 69.7063 37.4811 68.5344 37.0058C66.5179 32.6155 63.4597 28.7841 59.6256 25.8448C59.6256 25.2574 59.6256 24.621 59.6256 24.0336C59.6255 21.9124 60.0848 19.8163 60.9721 17.8896C61.8593 15.9629 63.1534 14.2513 64.7653 12.8725C65.5232 18.095 67.9486 22.9326 71.68 26.6641C75.4113 30.3957 80.2486 32.8212 85.4708 33.5792C84.0549 35.2358 82.2881 36.5566 80.2985 37.4456C78.3089 38.3346 76.1464 38.7697 73.9678 38.7192ZM51.4021 53.9432C50.1039 53.9432 48.8589 54.459 47.9409 55.377C47.0229 56.295 46.5072 57.5401 46.5072 58.8384V63.7336C46.5072 65.0319 47.0229 66.277 47.9409 67.195C48.8589 68.1131 50.1039 68.6288 51.4021 68.6288C52.7004 68.6288 53.9454 68.1131 54.8634 67.195C55.7813 66.277 56.2971 65.0319 56.2971 63.7336V58.8384C56.2971 57.5401 55.7813 56.295 54.8634 55.377C53.9454 54.459 52.7004 53.9432 51.4021 53.9432ZM51.4021 78.4192C50.1039 78.4192 48.8589 78.935 47.9409 79.853C47.0229 80.771 46.5072 82.0161 46.5072 83.3144V88.2096C46.5072 89.5079 47.0229 90.753 47.9409 91.671C48.8589 92.5891 50.1039 93.1048 51.4021 93.1048C52.7004 93.1048 53.9454 92.5891 54.8634 91.671C55.7813 90.753 56.2971 89.5079 56.2971 88.2096V83.3144C56.2971 82.0161 55.7813 80.771 54.8634 79.853C53.9454 78.935 52.7004 78.4192 51.4021 78.4192Z" fill="#33CCCC" fill-opacity="0.9"/>
</svg>
