<svg width="25" height="23" viewBox="0 0 25 23" fill="none" xmlns="http://www.w3.org/2000/svg">
<path d="M21.3707 8.47355L20.5107 6.46545C20.3635 6.12273 20.0904 5.84968 19.7477 5.7027L17.7415 4.84203L19.7477 3.98136C20.0904 3.83447 20.3636 3.56139 20.5107 3.21861L21.3707 1.21051L22.23 3.21861C22.3772 3.56139 22.6503 3.83447 22.993 3.98136L25 4.84203L22.993 5.7027C22.6506 5.85 22.3776 6.12295 22.23 6.46545L21.3707 8.47355ZM14.9191 3.22814L14.5365 2.33594C14.472 2.18337 14.3507 2.06188 14.1983 1.9971L13.3064 1.61425L14.1983 1.23178C14.3507 1.1665 14.4717 1.04512 14.5365 0.893304L14.9191 0L15.3009 0.893304C15.3665 1.04549 15.4882 1.16687 15.6395 1.23178L16.5318 1.61425L15.6395 1.9971C15.4872 2.06206 15.3658 2.18348 15.3009 2.33594L14.9191 3.22814ZM16.9353 18.158C11.5907 18.158 7.25818 13.8216 7.25818 8.47355C7.25818 6.00926 8.18566 3.7672 9.70054 2.05724C4.27788 2.45915 0 6.97958 0 12.5088C0 18.3028 4.69343 23 10.4836 23C14.3438 23 17.7092 20.9057 19.5286 17.7953C18.6846 18.0335 17.8122 18.1555 16.9353 18.158Z" fill="#33CCCC"/>
</svg>
