<svg width="34" height="28" viewBox="0 0 34 28" fill="none" xmlns="http://www.w3.org/2000/svg">
<path d="M8.11059 16.8074C8.03013 16.8077 7.9504 16.7922 7.87595 16.7617C7.8015 16.7312 7.73381 16.6863 7.67674 16.6296C6.43565 15.4169 5.75109 13.7954 5.75109 12.0617C5.75109 10.3281 6.43565 8.70474 7.67674 7.4921C8.26974 6.8842 8.97891 6.40173 9.76209 6.07337C10.5453 5.74501 11.3865 5.57746 12.2357 5.58068H12.2375C13.9747 5.58068 15.598 6.26346 16.8125 7.50277C16.928 7.62066 16.992 7.77962 16.9903 7.94468C16.9886 8.10974 16.9215 8.26738 16.8036 8.38291C16.6857 8.49845 16.5267 8.56242 16.3617 8.56075C16.1966 8.55908 16.039 8.49192 15.9234 8.37402C15.4443 7.88188 14.8711 7.49115 14.2378 7.22509C13.6046 6.95903 12.9243 6.82308 12.2375 6.82533H12.2357C10.8381 6.82533 9.53126 7.37475 8.55511 8.37224C7.54694 9.35907 6.99574 10.666 6.99574 12.06C6.99574 13.454 7.54694 14.7626 8.54444 15.737C8.60315 15.794 8.65002 15.862 8.68235 15.9371C8.71468 16.0123 8.73184 16.0931 8.73283 16.1749C8.73382 16.2567 8.71863 16.3378 8.68813 16.4137C8.65763 16.4896 8.61242 16.5588 8.55511 16.6171C8.49777 16.6773 8.4288 16.7252 8.35238 16.7579C8.27597 16.7906 8.19371 16.8075 8.11059 16.8074ZM8.8147 4.43916C8.6898 4.43938 8.56775 4.40179 8.4646 4.33134C8.36146 4.26088 8.28206 4.16086 8.23683 4.04443L7.38336 1.8823C7.34803 1.80546 7.32873 1.72222 7.32664 1.63767C7.32456 1.55312 7.33973 1.46903 7.37123 1.39054C7.40273 1.31204 7.4499 1.2408 7.50986 1.18115C7.56982 1.1215 7.64131 1.07469 7.71996 1.04359C7.79861 1.0125 7.88278 0.997757 7.96732 1.00028C8.05185 1.0028 8.13499 1.02252 8.21165 1.05825C8.28831 1.09397 8.35689 1.14495 8.41319 1.20806C8.46949 1.27118 8.51233 1.34511 8.5391 1.42533L9.39258 3.58747C9.4309 3.68177 9.44536 3.78408 9.43468 3.88531C9.42401 3.98655 9.38852 4.08358 9.33136 4.16782C9.27421 4.25206 9.19715 4.32089 9.10703 4.36823C9.01691 4.41556 8.9165 4.43992 8.8147 4.43916ZM1.61709 17.2075C1.47341 17.2058 1.33469 17.1547 1.22435 17.0627C1.11401 16.9706 1.03881 16.8434 1.01143 16.7023C0.984058 16.5613 1.00619 16.4151 1.0741 16.2884C1.142 16.1618 1.25152 16.0625 1.38416 16.0073L3.49828 15.1538C3.65132 15.0924 3.82247 15.0942 3.97416 15.1589C4.12585 15.2236 4.24567 15.3458 4.3073 15.4987C4.33825 15.5744 4.35392 15.6553 4.3534 15.737C4.35288 15.8187 4.33619 15.8995 4.30428 15.9748C4.27238 16.05 4.22589 16.1181 4.16751 16.1753C4.10913 16.2324 4.04001 16.2775 3.96413 16.3078L1.85001 17.1612C1.77625 17.1921 1.69704 17.2078 1.61709 17.2075ZM3.77922 9.31462C3.69946 9.31469 3.62041 9.29961 3.54629 9.27017L1.43217 8.4167C1.27867 8.35492 1.156 8.2347 1.09114 8.08248C1.02629 7.93026 1.02456 7.75851 1.08633 7.60501C1.14811 7.45151 1.26833 7.32884 1.42055 7.26399C1.57277 7.19913 1.74452 7.1974 1.89802 7.25918L4.01214 8.11265C4.3322 8.24245 4.48511 8.60339 4.35531 8.92345C4.30963 9.03893 4.23026 9.138 4.12751 9.20776C4.02477 9.27753 3.90341 9.31476 3.77922 9.31462ZM15.8132 4.48895C15.7101 4.48905 15.6087 4.46356 15.5179 4.41476C15.4271 4.36596 15.3499 4.29538 15.2931 4.20936C15.2364 4.12334 15.2018 4.02458 15.1927 3.92193C15.1835 3.81928 15.2 3.71596 15.2406 3.62125L16.1475 1.5089C16.2155 1.3618 16.3382 1.24704 16.4895 1.18902C16.6409 1.131 16.8089 1.1343 16.9578 1.19823C17.1067 1.26216 17.2248 1.38166 17.287 1.53133C17.3492 1.68099 17.3505 1.84901 17.2908 1.99965L16.3839 4.112C16.3362 4.22384 16.2567 4.31919 16.1552 4.38621C16.0537 4.45323 15.9348 4.48895 15.8132 4.48895Z" fill="#ECDB1F" stroke="#F4E321" stroke-width="0.5"/>
<path d="M27.5966 26.9619H10.1733C10.0709 26.9613 9.97012 26.9357 9.87991 26.8872C6.89632 26.5173 4.6684 24.0423 4.6684 21.0605C4.6684 17.835 7.31772 15.2088 10.5751 15.2088C10.7049 15.2088 10.8347 15.2142 10.9628 15.2248C11.0712 10.8455 14.6505 7.31421 19.0352 7.31421C23.4875 7.31421 27.1094 10.9539 27.1094 15.4275C27.1094 15.5075 27.1076 15.5876 27.1023 15.6676C27.8639 15.6352 28.6242 15.7571 29.3375 16.0259C30.0508 16.2947 30.7024 16.7049 31.2533 17.2319C31.8041 17.7588 32.2428 18.3916 32.543 19.0923C32.8432 19.793 32.9987 20.5471 33.0001 21.3094C32.9963 22.7588 32.4377 24.1517 31.4391 25.2022C30.4405 26.2527 29.0777 26.8811 27.6304 26.9583L27.5966 26.9619ZM10.3689 25.7154H27.5788C28.7051 25.6512 29.7644 25.1597 30.5408 24.3413C31.3173 23.523 31.7523 22.4392 31.7573 21.3112C31.7549 20.1429 31.2894 19.0232 30.4628 18.1976C29.6362 17.372 28.5159 16.9078 27.3476 16.9069C27.0312 16.9069 26.7609 16.9513 26.4924 16.9976C26.3957 17.0125 26.2967 17.0047 26.2035 16.9748C26.1103 16.9448 26.0254 16.8936 25.9555 16.825C25.8856 16.7565 25.8326 16.6726 25.8008 16.58C25.769 16.4874 25.7592 16.3887 25.7723 16.2917C25.8274 15.9289 25.8683 15.6782 25.8683 15.4275C25.8683 11.6402 22.8029 8.55886 19.037 8.55886C15.271 8.55886 12.2056 11.6402 12.2056 15.4275C12.2056 15.5058 12.2056 15.6711 12.2252 15.728C12.2577 15.8292 12.2644 15.9369 12.2445 16.0413C12.2246 16.1456 12.1788 16.2434 12.1114 16.3255C12.0436 16.4059 11.957 16.4683 11.8593 16.5071C11.7616 16.5458 11.6557 16.5598 11.5513 16.5477C11.217 16.4997 10.9005 16.4535 10.5787 16.4535C8.00761 16.4535 5.91482 18.5196 5.91482 21.0587C5.91482 23.4182 7.79246 25.4434 10.184 25.6674C10.2476 25.6743 10.3099 25.6905 10.3689 25.7154Z" fill="#33CCCC" fill-opacity="0.9" stroke="#33CCCC" stroke-width="0.5"/>
</svg>
