<svg width="93" height="98" viewBox="0 0 93 98" fill="none" xmlns="http://www.w3.org/2000/svg">
<path d="M31.8158 28.1803C31.8158 14.7063 19.1874 6.08293 18.6489 5.73995C17.8395 5.19229 16.8849 4.89963 15.9079 4.89963C14.9309 4.89963 13.9763 5.19229 13.1668 5.73995C12.6284 6.13192 0 14.7063 0 28.1803C0 32.4035 1.676 36.4538 4.65931 39.4401C7.64262 42.4264 11.6889 44.1041 15.9079 44.1041C20.1269 44.1041 24.1732 42.4264 27.1565 39.4401C30.1398 36.4538 31.8158 32.4035 31.8158 28.1803ZM15.9079 34.3048C14.2852 34.3048 12.7289 33.6595 11.5815 32.511C10.4341 31.3624 9.78947 29.8046 9.78947 28.1803C10.1923 23.5348 12.3869 19.2291 15.9079 16.1762C19.4499 19.2126 21.6492 23.5275 22.0263 28.1803C22.0263 29.8046 21.3817 31.3624 20.2343 32.511C19.0868 33.6595 17.5306 34.3048 15.9079 34.3048ZM45.57 40.0374C44.7606 39.4897 43.8059 39.197 42.8289 39.197C41.852 39.197 40.8973 39.4897 40.0879 40.0374C39.2558 40.6253 19.5789 54.2463 19.5789 74.7268C19.5789 80.8992 22.0285 86.8188 26.3887 91.1834C30.7489 95.548 36.6627 98 42.8289 98C48.9952 98 54.909 95.548 59.2692 91.1834C63.6294 86.8188 66.0789 80.8992 66.0789 74.7268C66.0789 53.9033 46.5 40.5763 45.57 40.0374ZM42.8289 88.2007C41.0613 88.2007 39.3109 87.8522 37.6778 87.1751C36.0447 86.498 34.5608 85.5055 33.3109 84.2543C32.061 83.0031 31.0695 81.5178 30.393 79.883C29.7166 78.2483 29.3684 76.4962 29.3684 74.7268C29.3684 63.4086 38.2279 54.2953 42.8779 50.2286C47.4789 54.0993 56.2895 63.1146 56.2895 74.7268C56.2895 76.4962 55.9413 78.2483 55.2649 79.883C54.5884 81.5178 53.5969 83.0031 52.347 84.2543C51.097 85.5055 49.6132 86.498 47.9801 87.1751C46.347 87.8522 44.5966 88.2007 42.8289 88.2007ZM76.1621 0.840323C75.3527 0.292663 74.398 0 73.4211 0C72.4441 0 71.4894 0.292663 70.68 0.840323C69.9947 1.33029 53.8421 12.5014 53.8421 29.4052C53.8421 34.603 55.9049 39.588 59.5766 43.2634C63.2484 46.9389 68.2284 49.0037 73.4211 49.0037C78.6137 49.0037 83.5937 46.9389 87.2655 43.2634C90.9372 39.588 93 34.603 93 29.4052C93 12.3055 76.8474 1.28129 76.1621 0.840323ZM73.4211 39.2044C70.8247 39.2044 68.3347 38.172 66.4988 36.3343C64.663 34.4966 63.6316 32.0041 63.6316 29.4052C63.967 25.8672 65.0059 22.4322 66.6871 19.302C68.3683 16.1719 70.6578 13.4099 73.4211 11.1785C76.1946 13.4004 78.4914 16.1601 80.1735 19.2921C81.8557 22.4241 82.8887 25.8638 83.2105 29.4052C83.2105 32.0041 82.1791 34.4966 80.3433 36.3343C78.5074 38.172 76.0174 39.2044 73.4211 39.2044Z" fill="#33CCCC" fill-opacity="0.9"/>
</svg>
