<svg width="123" height="98" viewBox="0 0 123 98" fill="none" xmlns="http://www.w3.org/2000/svg">
<path d="M121.036 31.1358C120.295 30.4119 119.383 29.8864 118.384 29.6082C117.384 29.3301 116.33 29.3084 115.32 29.5452C113.99 29.8512 112.63 30.0153 111.264 30.0346C106.375 30.0346 101.685 28.101 98.2278 24.6593C94.7703 21.2175 92.8278 16.5495 92.8278 11.6821C92.8473 10.3227 93.0121 8.96923 93.3195 7.64457C93.5573 6.6391 93.5356 5.59005 93.2562 4.59522C92.9768 3.6004 92.4489 2.6922 91.7216 1.9553C91.0063 1.18826 90.1052 0.616744 89.1045 0.295423C88.1039 -0.0258977 87.0371 -0.0862808 86.0063 0.12005C79.8898 1.4643 74.3422 4.66264 70.1271 9.27487C65.9119 13.8871 63.2365 19.6864 62.469 25.8747C59.122 24.9871 55.6696 24.5549 52.206 24.59C43.3494 24.585 34.7869 27.7534 28.0841 33.5158C21.3812 39.2783 16.9859 47.2498 15.7017 55.9728C10.7004 57.3689 6.37557 60.5193 3.52596 64.8423C0.676346 69.1652 -0.505532 74.3686 0.198612 79.4914C0.902756 84.6141 3.44535 89.3102 7.35679 92.7123C11.2682 96.1144 16.2843 97.9926 21.4784 98H77.8328C84.8902 98 91.6586 95.2092 96.6489 90.2416C101.639 85.274 104.443 78.5365 104.443 71.5112C104.467 67.2482 103.432 63.0454 101.432 59.2762C106.709 57.8091 111.49 54.9474 115.266 50.9947C119.042 47.042 121.673 42.1457 122.879 36.825C123.087 35.7989 123.026 34.7371 122.703 33.741C122.38 32.7449 121.806 31.8479 121.036 31.1358ZM78.0172 85.765H21.4784C19.0336 85.765 16.6889 84.7982 14.9601 83.0773C13.2314 81.3565 12.2602 79.0224 12.2602 76.5888C12.2602 74.1551 13.2314 71.821 14.9601 70.1002C16.6889 68.3793 19.0336 67.4125 21.4784 67.4125C23.1083 67.4125 24.6715 66.768 25.824 65.6207C26.9765 64.4735 27.624 62.9175 27.624 61.295C27.6391 56.8972 28.8446 52.5848 31.1137 48.8113C33.3828 45.0378 36.6315 41.9428 40.5181 39.8518C44.4048 37.7608 48.7857 36.7512 53.2001 36.929C57.6144 37.1069 61.8991 38.4657 65.6032 40.8626C70.0893 43.7674 73.4822 48.0699 75.2517 53.0976C75.603 54.1488 76.2344 55.0853 77.0787 55.8072C77.9229 56.5291 78.9482 57.0092 80.0452 57.1963C81.9296 57.3409 83.767 57.8536 85.4524 58.705C87.1378 59.5565 88.6382 60.73 89.868 62.1587C91.0978 63.5874 92.0328 65.2432 92.6198 67.0316C93.2067 68.82 93.434 70.7059 93.2887 72.5818C93.1435 74.4576 92.6285 76.2866 91.7731 77.9644C90.9178 79.6421 89.7388 81.1357 88.3036 82.3598C86.8684 83.584 85.205 84.5148 83.4084 85.0991C81.6118 85.6833 79.7172 85.9096 77.8328 85.765H78.0172ZM93.0122 48.3871C92.1532 48.4561 91.2901 48.4561 90.4311 48.3871C89.0131 47.6308 87.5328 46.9963 86.0063 46.4907C83.4747 41.0041 79.6351 36.2161 74.8215 32.5428C74.8215 31.8087 74.8215 31.0134 74.8215 30.2793C74.8213 27.6285 75.398 25.009 76.512 22.6013C77.6259 20.1935 79.2506 18.0545 81.2743 16.3314C82.2258 22.8579 85.2709 28.9034 89.9556 33.5667C94.6402 38.23 100.713 41.2612 107.27 42.2084C105.469 44.2342 103.24 45.8385 100.743 46.9067C98.2468 47.9748 95.5437 48.4804 92.8278 48.3871H93.0122Z" fill="#33CCCC" fill-opacity="0.9"/>
</svg>
