<svg width="28" height="23" viewBox="0 0 28 23" fill="none" xmlns="http://www.w3.org/2000/svg">
<path d="M10.8692 1.76777C11.1713 1.46366 11.5437 1.23896 11.9535 1.11364C12.3632 0.988315 12.7976 0.966255 13.2179 1.04942C13.6382 1.13258 14.0315 1.31839 14.3628 1.59032C14.694 1.86226 14.9531 2.2119 15.1168 2.60816C15.2805 3.00442 15.3438 3.43503 15.3012 3.8617C15.2586 4.28837 15.1112 4.69789 14.8724 5.05385C14.6335 5.40981 14.3104 5.70119 13.9319 5.90207C13.5533 6.10296 13.1311 6.20713 12.7026 6.20533H1M14.7701 21.0536C15.0721 21.3577 15.4446 21.5824 15.8544 21.7077C16.2641 21.833 16.6984 21.8551 17.1188 21.7719C17.5391 21.6888 17.9324 21.503 18.2636 21.231C18.5949 20.9591 18.8539 20.6095 19.0176 20.2132C19.1814 19.8169 19.2447 19.3863 19.2021 18.9597C19.1594 18.533 19.0121 18.1235 18.7732 17.7675C18.5343 17.4115 18.2113 17.1202 17.8327 16.9193C17.4542 16.7184 17.0319 16.6142 16.6035 16.616H1M21.4536 5.85397C21.8318 5.47643 22.2971 5.19798 22.8084 5.04325C23.3197 4.88852 23.8612 4.86227 24.3851 4.96683C24.9089 5.07138 25.3989 5.30353 25.8118 5.64272C26.2247 5.98191 26.5477 6.4177 26.7522 6.91155C26.9568 7.4054 27.0366 7.94208 26.9846 8.47414C26.9325 9.00619 26.7503 9.51722 26.454 9.96203C26.1577 10.4068 25.7564 10.7717 25.2857 11.0244C24.815 11.277 24.2893 11.4097 23.7551 11.4107H1" stroke="#33CCCC" stroke-opacity="0.9" stroke-width="2" stroke-linecap="round" stroke-linejoin="round"/>
</svg>
