<svg width="103" height="98" viewBox="0 0 103 98" fill="none" xmlns="http://www.w3.org/2000/svg">
<path d="M49.3591 72.1974H42.8728L47.2999 64.462C47.6724 63.875 47.9225 63.2187 48.0352 62.5324C48.1479 61.8461 48.1208 61.1441 47.9556 60.4685C47.7904 59.793 47.4906 59.1579 47.074 58.6014C46.6575 58.045 46.1329 57.5787 45.5318 57.2307C44.9307 56.8826 44.2655 56.6599 43.5763 56.5761C42.8871 56.4922 42.188 56.5489 41.5212 56.7427C40.8545 56.9364 40.2337 57.2633 39.6963 57.7037C39.1589 58.144 38.7159 58.6887 38.3941 59.305L29.4883 74.7759C29.0377 75.5576 28.7999 76.444 28.7985 77.3466C28.7972 78.2493 29.0323 79.1364 29.4805 79.9195C29.9286 80.7025 30.5741 81.354 31.3524 81.8088C32.1306 82.2637 33.0144 82.5059 33.9154 82.5113H40.4533L36.0776 90.2468C35.3949 91.4367 35.2121 92.8495 35.5693 94.1745C35.9265 95.4994 36.7945 96.628 37.9823 97.3118C39.1701 97.9957 40.5804 98.1788 41.903 97.821C43.2257 97.4632 44.3522 96.5937 45.0349 95.4037L53.9407 79.9329C54.3925 79.1489 54.6304 78.2596 54.6304 77.3544C54.6304 76.4492 54.3925 75.5599 53.9407 74.7759C53.4786 73.9735 52.8093 73.3106 52.0031 72.8569C51.1969 72.4032 50.2835 72.1754 49.3591 72.1974ZM97.8521 25.7848H93.7338C93.2016 23.4708 92.2975 21.2589 91.0569 19.2355L93.9397 16.3476C94.7831 15.361 95.2238 14.092 95.1737 12.7941C95.1237 11.4963 94.5866 10.2651 93.6698 9.34666C92.753 8.42824 91.524 7.8902 90.2284 7.84007C88.9328 7.78993 87.666 8.2314 86.6812 9.07625L83.7984 11.9641C81.7785 10.7214 79.5705 9.81571 77.2606 9.28253V5.15696C77.2606 3.78925 76.7182 2.47756 75.7528 1.51044C74.7874 0.543321 73.478 0 72.1127 0C70.7474 0 69.438 0.543321 68.4726 1.51044C67.5072 2.47756 66.9648 3.78925 66.9648 5.15696V9.28253C64.6549 9.81571 62.4469 10.7214 60.427 11.9641L57.5442 9.07625C56.5594 8.2314 55.2926 7.78993 53.997 7.84007C52.7015 7.8902 51.4725 8.42824 50.5556 9.34666C49.6388 10.2651 49.1017 11.4963 49.0517 12.7941C49.0017 14.092 49.4423 15.361 50.2857 16.3476L53.1685 19.287C52.7052 20.0606 52.3449 20.9373 51.933 21.7624C49.2862 21.0139 46.5496 20.6322 43.7994 20.6278C36.3805 20.6236 29.208 23.2945 23.5933 28.1522C17.9785 33.0098 14.2967 39.7297 13.221 47.083C9.57477 48.0833 6.33645 50.2102 3.96696 53.1611C1.59747 56.112 0.217563 59.7365 0.023657 63.5186C-0.170249 67.3007 0.831731 71.0477 2.88697 74.2263C4.94221 77.4048 7.94597 79.8529 11.4707 81.2221C12.1103 81.5266 12.8058 81.6955 13.5137 81.7185C14.2215 81.7414 14.9264 81.6177 15.5844 81.3553C16.2423 81.0928 16.8392 80.6972 17.3375 80.1931C17.8359 79.6891 18.225 79.0874 18.4807 78.4258C18.7364 77.7642 18.853 77.0569 18.8233 76.3481C18.7936 75.6392 18.6183 74.9442 18.3082 74.3063C17.9981 73.6685 17.56 73.1016 17.0213 72.6411C16.4825 72.1807 15.8547 71.8365 15.1772 71.6302C13.5187 70.9563 12.1454 69.7262 11.2921 68.1503C10.4388 66.5744 10.1583 64.7505 10.4988 62.9904C10.8392 61.2303 11.7794 59.6434 13.1586 58.5008C14.5378 57.3583 16.2703 56.7311 18.06 56.7266C19.4253 56.7266 20.7347 56.1832 21.7001 55.2161C22.6655 54.249 23.2079 52.9373 23.2079 51.5696C23.2299 46.6999 24.9711 41.995 28.1232 38.2877C31.2754 34.5804 35.6351 32.1098 40.4309 31.3133C45.2266 30.5167 50.149 31.4455 54.3269 33.9352C58.5047 36.425 61.6685 40.3151 63.2584 44.9171C63.5526 45.8033 64.0816 46.5928 64.7888 47.2013C65.496 47.8098 66.3548 48.2146 67.2737 48.3723C69.9373 48.8447 72.3632 50.2052 74.1577 52.2328C75.9522 54.2605 77.0098 56.8362 77.1589 59.5419C77.3079 62.2475 76.5397 64.9242 74.9788 67.1374C73.418 69.3505 71.1562 70.9701 68.5607 71.7333C67.1954 71.9179 65.9592 72.6383 65.1241 73.736C64.289 74.8337 63.9234 76.2187 64.1078 77.5864C64.2921 78.9542 65.0112 80.1925 66.107 81.0291C67.2027 81.8656 68.5853 82.2319 69.9506 82.0472C70.4109 82.1223 70.8803 82.1223 71.3405 82.0472C74.3293 81.2158 77.1103 79.7645 79.5032 77.7873C81.8961 75.8101 83.8475 73.3511 85.2308 70.5699C86.6141 67.7887 87.3985 64.7472 87.5331 61.6428C87.6676 58.5384 87.1494 55.4403 86.012 52.5494L86.6812 53.2198C87.6401 54.1725 88.9342 54.7096 90.2847 54.7153C90.9622 54.7193 91.6338 54.5892 92.261 54.3325C92.8882 54.0759 93.4587 53.6978 93.9397 53.2198C94.8985 52.2536 95.4367 50.9466 95.4367 49.5842C95.4367 48.2218 94.8985 46.9147 93.9397 45.9485L91.0569 43.0606C92.3398 40.9103 93.2452 38.5555 93.7338 36.0987H97.8521C99.2174 36.0987 100.527 35.5554 101.492 34.5883C102.458 33.6212 103 32.3095 103 30.9418C103 29.574 102.458 28.2624 101.492 27.2952C100.527 26.3281 99.2174 25.7848 97.8521 25.7848ZM80.6582 39.4507C79.7481 40.3164 78.7053 41.0303 77.5695 41.5651C75.8989 40.3442 74.061 39.3715 72.1127 38.6772C69.7475 33.5035 66.03 29.0667 61.3536 25.8364C61.9275 24.5043 62.7289 23.2828 63.7217 22.2265C66.0335 20.0845 69.0666 18.8947 72.2157 18.8947C75.3647 18.8947 78.3979 20.0845 80.7097 22.2265C82.9174 24.5069 84.1521 27.5588 84.1521 30.7355C84.1521 33.9122 82.9174 36.9641 80.7097 39.2445L80.6582 39.4507Z" fill="#33CCCC" fill-opacity="0.9"/>
</svg>
